<?xml version="1.0" encoding="UTF-8"?> <!-- Generator: Adobe Illustrator 23.0.6, SVG Export Plug-In . SVG Version: 6.00 Build 0) --> <svg xmlns="http://www.w3.org/2000/svg" xmlns:xlink="http://www.w3.org/1999/xlink" id="Capa_1" x="0px" y="0px" viewBox="0 0 260 260" style="enable-background:new 0 0 260 260;" xml:space="preserve"> <style type="text/css"> .st0{fill:url(#SVGID_1_);} .st1{fill:#FFFFFF;} .st2{filter:url(#Adobe_OpacityMaskFilter);} .st3{clip-path:url(#SVGID_3_);fill:url(#SVGID_5_);} .st4{clip-path:url(#SVGID_3_);mask:url(#SVGID_4_);fill:url(#SVGID_6_);} .st5{filter:url(#Adobe_OpacityMaskFilter_1_);} .st6{clip-path:url(#SVGID_8_);fill:url(#SVGID_10_);} .st7{clip-path:url(#SVGID_8_);mask:url(#SVGID_9_);fill:url(#SVGID_11_);} </style> <g> <linearGradient id="SVGID_1_" gradientUnits="userSpaceOnUse" x1="130" y1="248" x2="130" y2="12"> <stop offset="8.349868e-03" style="stop-color:#1BDAF6"></stop> <stop offset="1" style="stop-color:#1B7FF6"></stop> </linearGradient> <path class="st0" d="M204,248H56c-24.2,0-44-19.8-44-44V56c0-24.2,19.8-44,44-44h148c24.2,0,44,19.8,44,44v148 C248,228.2,228.2,248,204,248z"></path> </g> <g> <path class="st1" d="M211.27,111.61c-8.24-17.27-23.33-35.31-44.3-34.58c-17.28,0.6-27.34,12.55-36.64,25.59 c-9.3-13.03-19.36-24.98-36.64-25.59c-20.97-0.73-36.06,17.31-44.3,34.58c-9.13,19.14-18.07,46.79,0.4,63.49 c15.65,14.15,39.15,8.62,54.7-2.52c9.45-6.77,18.76-15.68,25.58-25.93c0.64,0.89,1.3,1.76,1.97,2.63 c2.95,3.77,6.18,7.42,9.61,10.87c0.53,0.54,1.07,1.08,1.61,1.6c0.08,0.08,0.16,0.16,0.25,0.24c0.72,0.7,1.44,1.38,2.17,2.06 c1.75,1.61,3.53,3.18,5.33,4.67c1.44,1.19,2.93,2.34,4.5,3.37c0.22,0.16,0.45,0.33,0.67,0.49c15.55,11.14,39.05,16.67,54.7,2.52 C229.33,158.39,220.4,130.75,211.27,111.61 M94.24,146.62c-5.66,4.92-12.21,10.26-19.93,11.13c-9.04,1.01-10.33-7.41-8.66-14.17 c2.11-8.51,5.2-16.2,9.41-23.89c3.43-6.27,9.04-15.6,17.21-16.01c1.32-0.07,2.61,0.35,3.81,0.9c1.47,0.68,3.72,2.56,6.19,4.91 c0.47,0.51,0.87,0.95,1.15,1.23c4.49,4.54,11.87,13.93,12.04,14.35C113.08,128.72,99.52,142.02,94.24,146.62 M193.7,155.25 c-1.68,2.11-4.19,2.72-6.8,2.58c-14.33-2.75-30.31-19.67-41.62-34.07c2.42-3.2,14.64-16.99,19.29-19.19 c1.19-0.56,2.49-0.97,3.81-0.9c8.17,0.42,13.79,9.75,17.21,16.01c4.21,7.7,7.3,15.38,9.41,23.89 C195.92,147.27,196.21,152.08,193.7,155.25"></path> </g> <g> <g> <g> <defs> <path id="SVGID_2_" d="M115.45,125.07c-0.41,0.49-0.43,0.66-1.09,1.44c-4.03,4.89-15.4,15.99-20.13,20.11 c-2.27,1.97-6.48,5.88-12.59,9.08c5.91,6.69,6.93,9.11,16.56,20.81c2.2-1.2,4.32-2.5,6.27-3.94c11.2-8.24,18-15.76,21.83-20.72 c2.54-3.29,3.77-5.18,3.77-5.18C121.23,134.2,115.45,125.07,115.45,125.07"></path> </defs> <clipPath id="SVGID_3_"> <use xlink:href="#SVGID_2_" style="overflow:visible;"></use> </clipPath> <defs> <filter id="Adobe_OpacityMaskFilter" x="54.38" y="94.33" width="98.84" height="107.78"> <feColorMatrix type="matrix" values="1 0 0 0 0 0 1 0 0 0 0 0 1 0 0 0 0 0 1 0"></feColorMatrix> </filter> </defs> <mask maskUnits="userSpaceOnUse" x="54.38" y="94.33" width="98.84" height="107.78" id="SVGID_4_"> <g class="st2"> <linearGradient id="SVGID_5_" gradientUnits="userSpaceOnUse" x1="85.0556" y1="182.1087" x2="86.0035" y2="182.1087" gradientTransform="matrix(76.3577 -76.3577 -76.3577 -76.3577 7460.3535 20600.9355)"> <stop offset="0" style="stop-color:#000000"></stop> <stop offset="0.6313" style="stop-color:#000000"></stop> <stop offset="1" style="stop-color:#939393"></stop> <stop offset="1" style="stop-color:#999999"></stop> </linearGradient> <polygon class="st3" points="54.38,146.17 104.32,96.23 154.25,146.17 104.32,196.1 "></polygon> </g> </mask> <linearGradient id="SVGID_6_" gradientUnits="userSpaceOnUse" x1="84.8688" y1="182.1038" x2="86.0427" y2="182.1038" gradientTransform="matrix(76.3577 -76.3577 -76.3577 -76.3577 7460.3545 20600.9375)"> <stop offset="0" style="stop-color:#FFFFFF;stop-opacity:0"></stop> <stop offset="0.5" style="stop-color:#FFFFFF;stop-opacity:0"></stop> <stop offset="1" style="stop-color:#20235F"></stop> <stop offset="1" style="stop-color:#192354"></stop> </linearGradient> <polygon class="st4" points="54.38,146.17 111.9,94.33 153.22,148.71 95.99,202.11 "></polygon> </g> </g> </g> <g> <g> <g> <defs> <path id="SVGID_7_" d="M145.27,123.76c0.4-0.5,0.66-0.85,1.3-1.64c4.01-4.92,15.53-17.6,19.93-18.25 c2.97-0.44,7.33,0.06,12.56,5.97c-5.92-6.69,4.54-33.35-10.6-32.83c-3.04,0.11-7.74,0.86-10.11,1.4 C147,81,137.66,92.27,133.96,97.32c-2.45,3.35-3.65,5.27-3.65,5.27C139.46,114.84,145.27,123.76,145.27,123.76"></path> </defs> <clipPath id="SVGID_8_"> <use xlink:href="#SVGID_7_" style="overflow:visible;"></use> </clipPath> <defs> <filter id="Adobe_OpacityMaskFilter_1_" x="107.12" y="46.34" width="98.88" height="108.13"> <feColorMatrix type="matrix" values="1 0 0 0 0 0 1 0 0 0 0 0 1 0 0 0 0 0 1 0"></feColorMatrix> </filter> </defs> <mask maskUnits="userSpaceOnUse" x="107.12" y="46.34" width="98.88" height="108.13" id="SVGID_9_"> <g class="st5"> <linearGradient id="SVGID_10_" gradientUnits="userSpaceOnUse" x1="80.0176" y1="184.1488" x2="80.9655" y2="184.1488" gradientTransform="matrix(-74.4718 78.1981 78.1981 74.4718 -8231.5898 -19924.6934)"> <stop offset="0" style="stop-color:#000000"></stop> <stop offset="0.6313" style="stop-color:#000000"></stop> <stop offset="1" style="stop-color:#939393"></stop> <stop offset="1" style="stop-color:#999999"></stop> </linearGradient> <polygon class="st6" points="206,101.25 157.3,152.39 106.15,103.68 154.86,52.54 "></polygon> </g> </mask> <linearGradient id="SVGID_11_" gradientUnits="userSpaceOnUse" x1="79.8309" y1="184.1439" x2="81.0048" y2="184.1439" gradientTransform="matrix(-74.4718 78.1981 78.1981 74.4718 -8231.5908 -19924.6953)"> <stop offset="0" style="stop-color:#FFFFFF;stop-opacity:0"></stop> <stop offset="0.5" style="stop-color:#FFFFFF;stop-opacity:0"></stop> <stop offset="1" style="stop-color:#192354"></stop> <stop offset="1" style="stop-color:#20235F"></stop> </linearGradient> <polygon class="st7" points="206,101.25 149.76,154.47 107.12,101.11 163.04,46.34 "></polygon> </g> </g> </g> </svg> 